<svg width="338" height="337" viewBox="0 0 338 337" fill="none" xmlns="http://www.w3.org/2000/svg">
<path opacity="0.1" fill-rule="evenodd" clip-rule="evenodd" d="M10.9426 10.9103C25.5328 -3.63676 49.1882 -3.63676 63.7784 10.9103L169 115.821L274.222 10.9103C288.812 -3.63676 312.467 -3.63676 327.057 10.9103C341.648 25.4573 341.648 49.0427 327.057 63.5897L221.836 168.5L327.057 273.41C341.648 287.957 341.648 311.543 327.057 326.09C312.467 340.637 288.812 340.637 274.222 326.09L169 221.179L63.7784 326.09C49.1882 340.637 25.5328 340.637 10.9426 326.09C-3.64755 311.543 -3.64755 287.957 10.9426 273.41L116.164 168.5L10.9426 63.5897C-3.64755 49.0427 -3.64755 25.4573 10.9426 10.9103Z" fill="black"/>
</svg>
